<svg xmlns="http://www.w3.org/2000/svg" viewBox="0 0 96 96" role="img" aria-label="Lilith Black Longhair">
  <rect width="96" height="96" rx="14" fill="#f3f5ff"/>

  <path d="M18 57c0-17 13-30 30-30s30 13 30 30c0 10-5 18-12 23-4-3-8-5-18-5s-14 2-18 5c-7-5-12-13-12-23z" fill="#111318" stroke="#3a3d46" stroke-width="2"/>
  <path d="M28 34l9-16 8 18" fill="#151821" stroke="#3a3d46" stroke-width="2"/>
  <path d="M68 34l-9-16-8 18" fill="#151821" stroke="#3a3d46" stroke-width="2"/>

  <path d="M22 63c4 4 10 3 14-1M74 63c-4 4-10 3-14-1" stroke="#22252d" stroke-width="4" stroke-linecap="round" fill="none"/>
  <path d="M34 72c4-2 8-3 14-3s10 1 14 3" stroke="#22252d" stroke-width="4" stroke-linecap="round" fill="none"/>

  <circle cx="38" cy="52" r="3" fill="#f5d77a"/>
  <circle cx="58" cy="52" r="3" fill="#f5d77a"/>
  <circle cx="48" cy="60" r="3" fill="#ff89ad"/>
  <path d="M24 49h12M60 49h12" stroke="#4a4e58" stroke-width="3" stroke-linecap="round"/>
</svg>
